<svg xmlns="http://www.w3.org/2000/svg" width="1800" height="920" viewBox="0 0 1800 920">
  <defs>
    <style>
      .title { font-family: "Segoe UI", Arial, sans-serif; font-size: 30px; font-weight: 800; fill: #182a88; }
      .subtitle { font-family: "Segoe UI", Arial, sans-serif; font-size: 17px; font-weight: 700; fill: #334155; }
      .label { font-family: "Segoe UI", Arial, sans-serif; font-size: 17px; font-weight: 650; fill: #1f2937; }
      .small { font-family: "Segoe UI", Arial, sans-serif; font-size: 14px; font-weight: 600; fill: #334155; }
      .tiny { font-family: "Segoe UI", Arial, sans-serif; font-size: 12px; font-weight: 600; fill: #475569; }
      .note { font-family: "Segoe UI", Arial, sans-serif; font-size: 13px; font-weight: 600; fill: #64748b; }
      .box { fill: #ffffff; stroke-width: 3; rx: 12; ry: 12; }
      .soft { fill-opacity: 0.13; stroke-width: 2.5; rx: 14; ry: 14; }
      .dash { stroke-dasharray: 10 7; }
      .arrow { fill: none; stroke-width: 3; marker-end: url(#arrow-dark); }
      .arrow-red { fill: none; stroke-width: 3; stroke: #f04444; marker-end: url(#arrow-red); }
      .arrow-blue { fill: none; stroke-width: 3; stroke: #2563eb; marker-end: url(#arrow-blue); }
      .arrow-green { fill: none; stroke-width: 3; stroke: #16a34a; marker-end: url(#arrow-green); }
      .arrow-purple { fill: none; stroke-width: 3; stroke: #7c3aed; marker-end: url(#arrow-purple); }
      .arrow-gray { fill: none; stroke-width: 2.4; stroke: #64748b; marker-end: url(#arrow-gray); }
    </style>

    <marker id="arrow-dark" markerWidth="12" markerHeight="12" refX="10" refY="4" orient="auto" markerUnits="strokeWidth">
      <path d="M0,0 L10,4 L0,8 Z" fill="#1f2937"/>
    </marker>
    <marker id="arrow-red" markerWidth="12" markerHeight="12" refX="10" refY="4" orient="auto" markerUnits="strokeWidth">
      <path d="M0,0 L10,4 L0,8 Z" fill="#f04444"/>
    </marker>
    <marker id="arrow-blue" markerWidth="12" markerHeight="12" refX="10" refY="4" orient="auto" markerUnits="strokeWidth">
      <path d="M0,0 L10,4 L0,8 Z" fill="#2563eb"/>
    </marker>
    <marker id="arrow-green" markerWidth="12" markerHeight="12" refX="10" refY="4" orient="auto" markerUnits="strokeWidth">
      <path d="M0,0 L10,4 L0,8 Z" fill="#16a34a"/>
    </marker>
    <marker id="arrow-purple" markerWidth="12" markerHeight="12" refX="10" refY="4" orient="auto" markerUnits="strokeWidth">
      <path d="M0,0 L10,4 L0,8 Z" fill="#7c3aed"/>
    </marker>
    <marker id="arrow-gray" markerWidth="12" markerHeight="12" refX="10" refY="4" orient="auto" markerUnits="strokeWidth">
      <path d="M0,0 L10,4 L0,8 Z" fill="#64748b"/>
    </marker>
  </defs>

  <rect x="0" y="0" width="1800" height="920" fill="#f8fbff"/>

  <!-- Section titles -->
  <text class="title" x="70" y="62">1. Inputs &amp; Encoders</text>
  <text class="title" x="470" y="62">2. Masking / Conditioning</text>
  <text class="title" x="810" y="62">3. Token-wise Cross-Attention &amp; Gates</text>
  <text class="title" x="1290" y="62">4. AdaLN Transformer</text>
  <text class="title" x="1515" y="62">5. Loss / Eval</text>

  <!-- section separators -->
  <line x1="445" y1="88" x2="445" y2="835" stroke="#94a3b8" stroke-width="2.2" stroke-dasharray="10 8"/>
  <line x1="785" y1="88" x2="785" y2="835" stroke="#94a3b8" stroke-width="2.2" stroke-dasharray="10 8"/>
  <line x1="1270" y1="88" x2="1270" y2="835" stroke="#94a3b8" stroke-width="2.2" stroke-dasharray="10 8"/>
  <line x1="1505" y1="88" x2="1505" y2="835" stroke="#94a3b8" stroke-width="2.2" stroke-dasharray="10 8"/>

  <!-- Inputs: text -->
  <rect class="box" x="70" y="110" width="94" height="60" stroke="#ef4444" fill="#fff7f7"/>
  <text class="label" x="91" y="146" fill="#dc2626">Edit</text>
  <text class="label" x="128" y="146" fill="#dc2626">Text</text>

  <rect class="box" x="200" y="108" width="105" height="64" stroke="#ef4444" fill="#fff7f7"/>
  <text class="label" x="224" y="136" fill="#dc2626">Flan-T5</text>
  <text class="tiny" x="226" y="156">frozen</text>

  <rect class="box" x="340" y="108" width="122" height="64" stroke="#ef4444" fill="#fff7f7"/>
  <text class="label" x="366" y="132" fill="#dc2626">Residual</text>
  <text class="label" x="371" y="154" fill="#dc2626">Adaptor</text>

  <path class="arrow-red" d="M164 140 H196"/>
  <path class="arrow-red" d="M305 140 H336"/>
  <text class="small" x="482" y="136" fill="#dc2626">Text Tokens T</text>
  <path class="arrow-red" d="M462 140 H580"/>

  <!-- Inputs: source motion -->
  <g transform="translate(55 260)" stroke="#2563eb" stroke-width="4" fill="none">
    <circle cx="20" cy="0" r="6" fill="#2563eb"/><circle cx="8" cy="34" r="5" fill="#2563eb"/><circle cx="32" cy="34" r="5" fill="#2563eb"/>
    <circle cx="-2" cy="70" r="5" fill="#2563eb"/><circle cx="42" cy="70" r="5" fill="#2563eb"/>
    <circle cx="2" cy="108" r="5" fill="#2563eb"/><circle cx="48" cy="108" r="5" fill="#2563eb"/>
    <path d="M20 6 L8 34 L-2 70 L2 108 M20 6 L32 34 L42 70 L48 108 M8 34 L32 34"/>
  </g>
  <text class="small" x="28" y="402" fill="#2563eb">Source Motion</text>

  <rect class="box" x="170" y="278" width="132" height="64" stroke="#2563eb" fill="#eff6ff"/>
  <text class="label" x="198" y="303" fill="#1d4ed8">Multi-scale</text>
  <text class="label" x="191" y="326" fill="#1d4ed8">HRVQ-VAE</text>
  <text class="tiny" x="213" y="344">frozen</text>

  <rect class="box" x="338" y="278" width="104" height="64" stroke="#2563eb" fill="#eff6ff"/>
  <text class="label" x="365" y="303" fill="#1d4ed8">MLP</text>
  <text class="tiny" x="355" y="326">token adaptor</text>

  <path class="arrow-blue" d="M118 312 H166"/>
  <path class="arrow-blue" d="M302 312 H334"/>
  <path class="arrow-blue" d="M442 312 H580"/>
  <text class="small" x="484" y="302" fill="#1d4ed8">Source Tokens S</text>

  <!-- Inputs: target motion -->
  <g transform="translate(60 580)" stroke="#16a34a" stroke-width="4" fill="none">
    <circle cx="0" cy="30" r="6" fill="#16a34a"/><circle cx="25" cy="18" r="6" fill="#16a34a"/>
    <circle cx="50" cy="34" r="6" fill="#16a34a"/><circle cx="76" cy="20" r="6" fill="#16a34a"/>
    <path d="M0 30 L25 18 L50 34 L76 20"/>
  </g>
  <text class="small" x="42" y="654" fill="#15803d">Target Motion</text>

  <rect class="box" x="170" y="558" width="132" height="64" stroke="#16a34a" fill="#f0fdf4"/>
  <text class="label" x="198" y="583" fill="#15803d">Multi-scale</text>
  <text class="label" x="191" y="606" fill="#15803d">HRVQ-VAE</text>
  <text class="tiny" x="213" y="624">frozen</text>

  <rect class="box" x="338" y="558" width="104" height="64" stroke="#16a34a" fill="#f0fdf4"/>
  <text class="label" x="365" y="583" fill="#15803d">MLP</text>
  <text class="tiny" x="355" y="606">token adaptor</text>

  <path class="arrow-green" d="M118 592 H166"/>
  <path class="arrow-green" d="M302 592 H334"/>
  <path class="arrow-green" d="M442 592 H580"/>
  <text class="small" x="478" y="582" fill="#15803d">Target Tokens Y</text>

  <!-- Masking / conditioning panel -->
  <rect class="soft" x="488" y="98" width="250" height="690" stroke="#64748b" fill="#e2e8f0"/>

  <rect class="box" x="515" y="122" width="195" height="90" stroke="#ef4444" fill="#fff7f7"/>
  <text class="label" x="556" y="150" fill="#dc2626">Text CFG</text>
  <text class="small" x="538" y="174" fill="#dc2626">drop text tokens</text>
  <g fill="#ef4444" opacity="0.85">
    <rect x="548" y="188" width="18" height="18" rx="4"/><rect x="578" y="188" width="18" height="18" rx="4"/>
    <rect x="608" y="188" width="18" height="18" rx="4"/><rect x="638" y="188" width="18" height="18" rx="4" opacity="0.18"/>
    <rect x="668" y="188" width="18" height="18" rx="4" opacity="0.18"/>
  </g>

  <rect class="box" x="515" y="248" width="195" height="100" stroke="#2563eb" fill="#eff6ff"/>
  <text class="label" x="548" y="276" fill="#1d4ed8">Source Cond</text>
  <text class="small" x="536" y="300" fill="#1d4ed8">token dropout 0.05</text>
  <text class="small" x="530" y="324" fill="#1d4ed8">or null source embed</text>

  <rect class="box" x="515" y="402" width="195" height="116" stroke="#16a34a" fill="#f0fdf4"/>
  <text class="label" x="548" y="430" fill="#15803d">Target Masking</text>
  <text class="small" x="540" y="454" fill="#15803d">motion CFG +</text>
  <text class="small" x="536" y="476" fill="#15803d">random mask 0.1-0.95</text>
  <g fill="#16a34a" opacity="0.85">
    <rect x="540" y="492" width="18" height="18" rx="4"/><rect x="570" y="492" width="18" height="18" rx="4" opacity="0.2"/>
    <rect x="600" y="492" width="18" height="18" rx="4"/><rect x="630" y="492" width="18" height="18" rx="4" opacity="0.2"/>
    <rect x="660" y="492" width="18" height="18" rx="4" opacity="0.2"/>
  </g>

  <rect class="box" x="515" y="592" width="195" height="82" stroke="#475569" fill="#ffffff"/>
  <text class="label" x="545" y="622" fill="#334155">Masked Target</text>
  <text class="small" x="558" y="646" fill="#334155">Tokens Q</text>
  <g fill="#64748b">
    <rect x="542" y="656" width="16" height="16" rx="4"/><rect x="572" y="656" width="16" height="16" rx="4"/>
    <rect x="602" y="656" width="16" height="16" rx="4"/><rect x="632" y="656" width="16" height="16" rx="4"/>
    <rect x="662" y="656" width="16" height="16" rx="4"/>
  </g>

  <path class="arrow-red" d="M580 140 H515"/>
  <path class="arrow-blue" d="M580 312 H515"/>
  <path class="arrow-green" d="M580 592 H515"/>
  <path class="arrow-gray" d="M612 518 V586"/>

  <!-- Cross attention stack -->
  <rect class="soft" x="825" y="98" width="388" height="690" stroke="#7c3aed" fill="#f5f3ff"/>

  <rect class="box" x="860" y="124" width="320" height="126" stroke="#2563eb" fill="#eff6ff"/>
  <text class="label" x="928" y="152" fill="#1d4ed8">(1) Source Cross-Attention</text>
  <rect class="box" x="895" y="168" width="250" height="32" stroke="#2563eb" fill="#ffffff"/>
  <text class="small" x="910" y="190" fill="#1d4ed8">Q: Masked Target Tokens Q</text>
  <rect class="box" x="895" y="208" width="250" height="32" stroke="#2563eb" fill="#ffffff"/>
  <text class="small" x="914" y="230" fill="#1d4ed8">K,V: Source Tokens S</text>
  <text class="tiny" x="1002" y="264" fill="#1d4ed8">source_CA</text>

  <rect class="box" x="860" y="300" width="320" height="126" stroke="#ef4444" fill="#fff7f7"/>
  <text class="label" x="938" y="328" fill="#dc2626">(2) Text Cross-Attention</text>
  <rect class="box" x="895" y="344" width="250" height="32" stroke="#ef4444" fill="#ffffff"/>
  <text class="small" x="922" y="366" fill="#dc2626">Q: source_CA</text>
  <rect class="box" x="895" y="384" width="250" height="32" stroke="#ef4444" fill="#ffffff"/>
  <text class="small" x="920" y="406" fill="#dc2626">K,V: Text Tokens T</text>
  <text class="tiny" x="1010" y="440" fill="#dc2626">text_CA</text>

  <rect class="box" x="852" y="498" width="338" height="158" stroke="#7c3aed" fill="#faf5ff"/>
  <text class="label" x="900" y="528" fill="#6d28d9">(3) Token-wise Edit Gates</text>
  <rect class="box" x="878" y="548" width="284" height="36" stroke="#7c3aed" fill="#ffffff"/>
  <text class="small" x="894" y="572" fill="#6d28d9">source_gate = MLP([Q, source_CA, g])</text>
  <rect class="box" x="878" y="594" width="284" height="36" stroke="#7c3aed" fill="#ffffff"/>
  <text class="small" x="890" y="618" fill="#6d28d9">edit_gate = MLP([Q, source_CA, text_CA, g])</text>
  <text class="tiny" x="908" y="646" fill="#6d28d9">g = global text embedding after MLP</text>

  <circle cx="1022" cy="724" r="28" fill="#ffffff" stroke="#334155" stroke-width="3"/>
  <text class="label" x="1013" y="732" fill="#111827">+</text>
  <text class="small" x="905" y="770" fill="#334155">Q + gs*(source_CA-Q) + ge*(text_CA-source_CA)</text>

  <path class="arrow-gray" d="M710 633 H850"/>
  <path class="arrow-blue" d="M710 312 C770 312 790 187 856 187"/>
  <path class="arrow-red" d="M710 166 C780 166 780 384 856 384"/>
  <path class="arrow-gray" d="M1020 250 V296"/>
  <path class="arrow-gray" d="M1020 426 V494"/>
  <path class="arrow-purple" d="M1020 656 V692"/>
  <path class="arrow-purple" d="M1050 724 H1260"/>

  <!-- Transformer -->
  <rect class="soft" x="1300" y="98" width="172" height="690" stroke="#f97316" fill="#fff7ed"/>
  <rect class="box" x="1322" y="142" width="128" height="58" stroke="#f97316" fill="#ffffff"/>
  <text class="label" x="1360" y="176" fill="#ea580c">AdaLN</text>

  <rect class="box" x="1322" y="235" width="128" height="72" stroke="#2563eb" fill="#eff6ff"/>
  <text class="small" x="1350" y="264" fill="#1d4ed8">Multi-Head</text>
  <text class="small" x="1340" y="287" fill="#1d4ed8">Self-Attention</text>

  <rect class="box" x="1322" y="342" width="128" height="58" stroke="#f97316" fill="#ffffff"/>
  <text class="label" x="1360" y="376" fill="#ea580c">AdaLN</text>

  <rect class="box" x="1322" y="435" width="128" height="72" stroke="#2563eb" fill="#eff6ff"/>
  <text class="small" x="1348" y="464" fill="#1d4ed8">Feed-Forward</text>
  <text class="small" x="1360" y="487" fill="#1d4ed8">Network</text>

  <rect class="box" x="1322" y="550" width="128" height="58" stroke="#f97316" fill="#ffffff"/>
  <text class="label" x="1345" y="584" fill="#ea580c">Final AdaLN</text>

  <rect class="box" x="1308" y="666" width="156" height="86" stroke="#2563eb" fill="#eff6ff"/>
  <text class="small" x="1342" y="696" fill="#1d4ed8">Predicted</text>
  <text class="small" x="1328" y="718" fill="#1d4ed8">Target Tokens</text>
  <g fill="#2563eb" opacity="0.75">
    <rect x="1344" y="730" width="15" height="15" rx="4"/><rect x="1370" y="730" width="15" height="15" rx="4"/>
    <rect x="1396" y="730" width="15" height="15" rx="4"/><rect x="1422" y="730" width="15" height="15" rx="4"/>
  </g>

  <path class="arrow-gray" d="M1386 200 V232"/>
  <path class="arrow-gray" d="M1386 307 V339"/>
  <path class="arrow-gray" d="M1386 400 V432"/>
  <path class="arrow-gray" d="M1386 507 V547"/>
  <path class="arrow-gray" d="M1386 608 V663"/>

  <!-- AdaLN condition -->
  <path class="arrow-red dash" d="M612 212 C880 90 1180 92 1320 162"/>
  <text class="small" x="1110" y="114" fill="#dc2626">AdaLN cond: global text g</text>

  <!-- Loss / Evaluation -->
  <rect class="soft" x="1522" y="98" width="236" height="690" stroke="#0f766e" fill="#f0fdfa"/>
  <rect class="box" x="1544" y="126" width="188" height="84" stroke="#16a34a" fill="#f0fdf4"/>
  <text class="label" x="1580" y="156" fill="#15803d">Training Loss</text>
  <text class="small" x="1568" y="182" fill="#15803d">CE(target tokens)</text>
  <text class="small" x="1562" y="202" fill="#15803d">+ text InfoNCE</text>

  <rect class="box" x="1544" y="238" width="188" height="82" stroke="#7c3aed" fill="#faf5ff"/>
  <text class="label" x="1568" y="268" fill="#6d28d9">Preservation CE</text>
  <text class="small" x="1558" y="294" fill="#6d28d9">token weights from</text>
  <text class="small" x="1578" y="314" fill="#6d28d9">source/target joints</text>

  <rect class="box" x="1544" y="374" width="188" height="128" stroke="#0f766e" fill="#ffffff"/>
  <text class="label" x="1583" y="404" fill="#0f766e">Evaluator</text>
  <text class="small" x="1562" y="432" fill="#0f766e">G2T R@1/R@2/R@3</text>
  <text class="small" x="1578" y="454" fill="#0f766e">G2T AvgR</text>
  <text class="small" x="1562" y="476" fill="#0f766e">G2S R@1/R@2/R@3</text>
  <text class="small" x="1586" y="498" fill="#0f766e">FID / Diversity</text>

  <rect class="box" x="1544" y="556" width="188" height="116" stroke="#475569" fill="#ffffff"/>
  <text class="label" x="1581" y="586" fill="#334155">Checkpoints</text>
  <text class="small" x="1568" y="614" fill="#334155">best.tar: G2T R@1</text>
  <text class="small" x="1568" y="636" fill="#334155">best_fid.tar: FID</text>
  <text class="small" x="1565" y="658" fill="#334155">latest / every 50 ep</text>

  <path class="arrow-blue" d="M1464 710 H1538"/>
  <path class="arrow-green" d="M1464 710 C1502 710 1504 168 1540 168"/>
  <path class="arrow-purple" d="M1464 710 C1505 710 1506 279 1540 279"/>
  <path class="arrow-gray" d="M1464 710 C1505 710 1506 438 1540 438"/>

  <!-- Inference CFG note -->
  <rect class="box" x="820" y="812" width="470" height="58" stroke="#334155" fill="#ffffff"/>
  <text class="subtitle" x="848" y="838">Inference CFG: same source motion in both branches</text>
  <text class="note" x="848" y="860">uncond = source + null text, cond = source + edit text; cond_scale controls edit strength</text>
</svg>
